Coordinates
version=1
nRows=11
nColumns=32
inDegrees=yes

Units are S.I. units (second, meters, Newtons, ...)
If the header above contains a line with 'inDegrees', this indicates whether rotational values are in degrees (yes) or radians (no).

endheader
time	pelvis_tilt	pelvis_list	pelvis_rotation	pelvis_tx	pelvis_ty	pelvis_tz	hip_flexion_r	hip_adduction_r	hip_rotation_r	knee_angle_r	knee_adduction_r	med_cond_adduction_r	lat_cond_adduction_r	patella_r_constrained_knee_angle	ankle_angle_r	subtalar_angle_r	mtp_angle_r	hip_flexion_l	hip_adduction_l	hip_rotation_l	knee_angle_l	knee_adduction_l	med_cond_adduction_l	lat_cond_adduction_l	patella_l_constrained_knee_angle	ankle_angle_l	subtalar_angle_l	mtp_angle_l	lumbar_extension	lumbar_bending	lumbar_rotation
      0.22500000	    -18.17347532	     16.22846695	     72.11022771	      0.48668547	      1.11593223	     -0.71635732	    -25.35478161	    -23.25367147	      7.69179282	     -9.16053834	     -0.00000000	     -0.00000000	      0.00000000	     -0.15988156	     -3.56765783	      3.37272107	     -0.00000000	    -23.32820901	     23.79033502	     -6.67068537	    -50.78074462	      0.00000000	      0.00000000	     -0.00000000	     -0.88629119	      4.89185207	      9.56331762	      0.00000000	      0.00000002	      0.00000001	      0.00000000
      0.22916667	    -20.06093332	     15.51049683	     72.38241591	      0.48571345	      1.11697236	     -0.72876622	    -24.63301224	    -25.31802722	      4.61288749	     -9.38004103	      0.00000000	     -0.00000000	      0.00000000	     -0.16371260	     -4.56432353	      6.38870712	      0.00000000	    -21.30774661	     25.43822770	     -6.25506084	    -49.65197619	      0.00000000	      0.00000000	     -0.00000000	     -0.86659046	      4.33600220	      8.50231286	      0.00000000	      0.00000001	      0.00000000	      0.00000000
      0.23333333	    -21.65440047	     14.79126370	     72.68016170	      0.48462165	      1.11808093	     -0.74119557	    -24.02684333	    -27.07973515	      1.53990362	     -9.53394205	      0.00000000	      0.00000000	     -0.00000000	     -0.16639868	     -5.81191731	      9.33384256	     -0.00000000	    -19.38942262	     26.77039716	     -5.90501187	    -48.53639169	      0.00000000	     -0.00000000	      0.00000000	     -0.84711984	      3.99253778	      7.68931545	     -0.00000000	      0.00000001	      0.00000000	      0.00000000
      0.23750000	    -23.17701809	     13.95360586	     73.01292985	      0.48331960	      1.11914772	     -0.75374263	    -23.36729043	    -28.72789255	     -1.47244126	     -9.71628312	      0.00000000	     -0.00000000	      0.00000000	     -0.16958113	     -7.27423059	     12.00314444	      0.00000000	    -17.38846508	     28.02605367	     -5.52839330	    -47.35238553	     -0.00000000	     -0.00000000	      0.00000000	     -0.82645504	      3.52423213	      6.57658325	      0.00000000	      0.00000001	      0.00000000	      0.00000000
      0.24166667	    -24.25915002	     13.18707889	     73.33274787	      0.48204331	      1.12047045	     -0.76630039	    -22.89688632	    -29.92566255	     -4.37077445	     -9.93833987	      0.00000000	      0.00000000	     -0.00000000	     -0.17345675	     -9.06067933	     14.19971745	      0.00000000	    -15.59695255	     28.83988096	     -5.24929333	    -46.17259486	     -0.00000000	     -0.00000000	      0.00000000	     -0.80586380	      2.87700574	      5.61358284	      0.00000000	      0.00000001	      0.00000000	      0.00000000
      0.24583333	    -25.01437124	     12.45250616	     73.65517415	      0.48079433	      1.12191805	     -0.77889318	    -22.57589838	    -30.78019937	     -7.12194633	    -10.03244815	      0.00000000	     -0.00000000	      0.00000000	     -0.17509925	    -11.12966456	     16.04304422	     -0.00000000	    -13.94264848	     29.30104430	     -5.08539290	    -45.01719673	      0.00000000	      0.00000000	     -0.00000000	     -0.78569830	      2.47175989	      4.82556554	     -0.00000000	      0.00000001	      0.00000000	      0.00000000
      0.25000000	    -25.55587188	     11.60743670	     73.97720790	      0.47957623	      1.12328821	     -0.79135198	    -22.18507366	    -31.35814190	     -9.62996415	    -10.01441986	      0.00000000	      0.00000000	     -0.00000000	     -0.17478460	    -13.44139866	     17.43690478	      0.00000000	    -12.20295550	     29.51671042	     -4.95539618	    -43.92463324	     -0.00000000	     -0.00000000	      0.00000000	     -0.76662947	      2.12347901	      4.17057733	      0.00000000	      0.00000000	      0.00000000	      0.00000000
      0.25416667	    -25.93945137	     10.90202052	     74.30180179	      0.47853006	      1.12494343	     -0.80389291	    -21.97041241	    -31.79264470	    -12.07952701	    -10.09092678	     -0.00000000	      0.00000000	     -0.00000000	     -0.17611990	    -15.93646530	     18.34554178	      0.00000000	    -10.72294010	     29.61763008	     -4.75445175	    -42.71674941	      0.00000000	      0.00000000	     -0.00000000	     -0.74554792	      1.60471295	      3.53548484	     -0.00000000	      0.00000000	      0.00000000	      0.00000000
      0.25833333	    -26.27441578	     10.11689699	     74.61338224	      0.47735037	      1.12645415	     -0.81644451	    -21.66445385	    -32.15573190	    -14.41491679	    -10.13641548	     -0.00000000	      0.00000000	     -0.00000000	     -0.17691382	    -18.61143839	     18.83355961	     -0.00000000	     -9.17155279	     29.68088865	     -4.52680540	    -41.48152150	     -0.00000000	     -0.00000000	      0.00000000	     -0.72398913	      0.95550994	      2.65879636	     -0.00000000	      0.00000000	      0.00000000	      0.00000000
      0.26250000	    -26.53020861	      9.38567288	     74.97179873	      0.47609884	      1.12806520	     -0.82894120	    -21.44966888	    -32.43616485	    -16.76699242	    -10.26044968	      0.00000000	      0.00000000	     -0.00000000	     -0.17907863	    -21.24180720	     19.11040888	      0.00000000	     -7.74425861	     29.71612556	     -4.11493686	    -40.15672347	     -0.00000000	      0.00000000	     -0.00000000	     -0.70086704	      0.39671277	      1.93762071	      0.00000000	      0.00000000	      0.00000000	      0.00000000
      0.26666667	    -26.74955635	      8.67633587	     75.30876302	      0.47482416	      1.12957027	     -0.84147691	    -21.25211230	    -32.70085276	    -19.02165560	    -10.27902595	     -0.00000000	     -0.00000000	      0.00000000	     -0.17940285	    -24.07742185	     19.27832822	     -0.00000000	     -6.38397464	     29.74582109	     -3.64291974	    -38.78458211	      0.00000000	     -0.00000000	      0.00000000	     -0.67691866	     -0.44738531	      0.87553269	      0.00000000	      0.00000000	      0.00000000	      0.00000000
